<svg width="247" height="72" viewBox="0 0 247 72" fill="none" xmlns="http://www.w3.org/2000/svg">
<path d="M44.0001 19.6667C32.4057 19.6667 20.6667 23.274 20.6667 30.1667C20.6667 37.0594 32.4057 40.6667 44.0001 40.6667C55.5967 40.6667 67.3334 37.0594 67.3334 30.1667C67.3334 23.274 55.5967 19.6667 44.0001 19.6667ZM32.3334 42.8554V49.8554C35.2197 50.553 38.4117 50.98 41.6667 51.1177V44.1177C38.5225 43.9952 35.3972 43.5725 32.3334 42.8554ZM46.3334 44.1154V51.1154C49.4778 50.9953 52.6034 50.5726 55.6668 49.853V42.853C52.6034 43.5726 49.4778 43.9953 46.3334 44.1154ZM60.3334 41.3597V48.3597C64.5358 46.598 67.3334 44.0267 67.3334 40.6667V33.6667C67.3334 37.0267 64.5358 39.598 60.3334 41.3597ZM27.6667 48.3597V41.3597C23.4667 39.598 20.6667 37.0244 20.6667 33.6667V40.6667C20.6667 44.0244 23.4667 46.598 27.6667 48.3597Z" fill="#2196F3"/>
<path d="M83.188 36.328C83.188 33.832 83.728 31.612 84.808 29.668C85.888 27.7 87.388 26.176 89.308 25.096C91.252 23.992 93.448 23.44 95.896 23.44C98.896 23.44 101.464 24.232 103.6 25.816C105.736 27.4 107.164 29.56 107.884 32.296H101.116C100.612 31.24 99.892 30.436 98.956 29.884C98.044 29.332 97 29.056 95.824 29.056C93.928 29.056 92.392 29.716 91.216 31.036C90.04 32.356 89.452 34.12 89.452 36.328C89.452 38.536 90.04 40.3 91.216 41.62C92.392 42.94 93.928 43.6 95.824 43.6C97 43.6 98.044 43.324 98.956 42.772C99.892 42.22 100.612 41.416 101.116 40.36H107.884C107.164 43.096 105.736 45.256 103.6 46.84C101.464 48.4 98.896 49.18 95.896 49.18C93.448 49.18 91.252 48.64 89.308 47.56C87.388 46.456 85.888 44.932 84.808 42.988C83.728 41.044 83.188 38.824 83.188 36.328ZM117.81 32.26C118.53 31.156 119.43 30.292 120.51 29.668C121.59 29.02 122.79 28.696 124.11 28.696V35.212H122.418C120.882 35.212 119.73 35.548 118.962 36.22C118.194 36.868 117.81 38.02 117.81 39.676V49H111.654V28.912H117.81V32.26ZM130.148 26.824C129.068 26.824 128.18 26.512 127.484 25.888C126.812 25.24 126.476 24.448 126.476 23.512C126.476 22.552 126.812 21.76 127.484 21.136C128.18 20.488 129.068 20.164 130.148 20.164C131.204 20.164 132.068 20.488 132.74 21.136C133.436 21.76 133.784 22.552 133.784 23.512C133.784 24.448 133.436 25.24 132.74 25.888C132.068 26.512 131.204 26.824 130.148 26.824ZM133.208 28.912V49H127.052V28.912H133.208ZM147.75 34.024H144.438V49H138.282V34.024H136.05V28.912H138.282V28.336C138.282 25.864 138.99 23.992 140.406 22.72C141.822 21.424 143.898 20.776 146.634 20.776C147.09 20.776 147.426 20.788 147.642 20.812V26.032C146.466 25.96 145.638 26.128 145.158 26.536C144.678 26.944 144.438 27.676 144.438 28.732V28.912H147.75V34.024ZM161.838 43.78V49H158.706C156.474 49 154.734 48.46 153.486 47.38C152.238 46.276 151.614 44.488 151.614 42.016V34.024H149.166V28.912H151.614V24.016H157.77V28.912H161.802V34.024H157.77V42.088C157.77 42.688 157.914 43.12 158.202 43.384C158.49 43.648 158.97 43.78 159.642 43.78H161.838ZM174.411 49.288C172.443 49.288 170.667 48.868 169.083 48.028C167.523 47.188 166.287 45.988 165.375 44.428C164.487 42.868 164.043 41.044 164.043 38.956C164.043 36.892 164.499 35.08 165.411 33.52C166.323 31.936 167.571 30.724 169.155 29.884C170.739 29.044 172.515 28.624 174.483 28.624C176.451 28.624 178.227 29.044 179.811 29.884C181.395 30.724 182.643 31.936 183.555 33.52C184.467 35.08 184.923 36.892 184.923 38.956C184.923 41.02 184.455 42.844 183.519 44.428C182.607 45.988 181.347 47.188 179.739 48.028C178.155 48.868 176.379 49.288 174.411 49.288ZM174.411 43.96C175.587 43.96 176.583 43.528 177.399 42.664C178.239 41.8 178.659 40.564 178.659 38.956C178.659 37.348 178.251 36.112 177.435 35.248C176.643 34.384 175.659 33.952 174.483 33.952C173.283 33.952 172.287 34.384 171.495 35.248C170.703 36.088 170.307 37.324 170.307 38.956C170.307 40.564 170.691 41.8 171.459 42.664C172.251 43.528 173.235 43.96 174.411 43.96ZM186.965 38.956C186.965 36.868 187.385 35.044 188.225 33.484C189.089 31.924 190.277 30.724 191.789 29.884C193.325 29.044 195.077 28.624 197.045 28.624C199.565 28.624 201.665 29.284 203.345 30.604C205.049 31.924 206.165 33.784 206.693 36.184H200.141C199.589 34.648 198.521 33.88 196.937 33.88C195.809 33.88 194.909 34.324 194.237 35.212C193.565 36.076 193.229 37.324 193.229 38.956C193.229 40.588 193.565 41.848 194.237 42.736C194.909 43.6 195.809 44.032 196.937 44.032C198.521 44.032 199.589 43.264 200.141 41.728H206.693C206.165 44.08 205.049 45.928 203.345 47.272C201.641 48.616 199.541 49.288 197.045 49.288C195.077 49.288 193.325 48.868 191.789 48.028C190.277 47.188 189.089 45.988 188.225 44.428C187.385 42.868 186.965 41.044 186.965 38.956ZM230.506 28.912L217.906 58.54H211.282L215.89 48.316L207.718 28.912H214.594L219.238 41.476L223.846 28.912H230.506Z" fill="black"/>
</svg>
